# xmcd
#
# Track frame offsets:
#	150
#	14570
#	25800
#	35631
#	47260
#	56131
#	67929
#	83230
#	94915
#	103372
#	118725
#	131353
#	146080
#	159580
#	174825
#	183799
#	202385
#	217255
#
# Disc length: 3211 seconds
#
# Revision: 1
# Processed by: cddbd v1.5.1PL0 Copyright (c) Steve Scherf et al.
# Submitted via: CDex 1.50Beta5
#
DISCID=080c8912
DTITLE=月刊０１５２　Vol.03 -THE Winter Collection 2003- - 月刊０１５２　Vol.03 -THE Winter Collection 2003-
DYEAR=2003
DGENRE=Reggae
TTITLE0=Soul Brothers/Law Man (Studio One)
TTITLE1=Gaylads/My Jamaican Girl (Beverley's/trojan)
TTITLE2=Billy Hope And The Badmen/Papa Luigi (Savoy)
TTITLE3=Twinkle Brothers/The Sweeter She Is （Twinkle）
TTITLE4=Dr.ALIMANTADO/Mary Lou (Impact!)
TTITLE5=Jackie Mitoo/Love Of Life (Summus)
TTITLE6=Lee Perry and The Upsetters/Crab Years (Upsetters)
TTITLE7=SiR Coxsone Sound/Piccadilly Circus Dub (Tribesman)
TTITLE8=Johnny Osbourne/Love So Strong (Greensleeves)
TTITLE9=Trinity/Why Did You Leave (Jackpot)
TTITLE10=Augastus Pablo/Assignment No.１ （Kaya）
TTITLE11=JOE Higgis Feat. King Stitt/Dinah (Studio One)
TTITLE12=Duke Harris and HIS Calypsonians/Summertime Calypso (Downbeat)
TTITLE13=Tommy McCCOK and THE Supersonics/Real Cool (Treasure Isle)
TTITLE14=Byron Lee and The Dragonaires/Hold Me Tight (Dynamic)
TTITLE15=Ernest Ranglin/Less Problem (Sutudio One)
TTITLE16=Bunny Scott/What's The Use (Seven Leaves)
TTITLE17=Dr.ALIMANTADO/Love Is (Keyman)
EXTD=
EXTT0=
EXTT1=
EXTT2=
EXTT3=
EXTT4=
EXTT5=
EXTT6=
EXTT7=
EXTT8=
EXTT9=
EXTT10=
EXTT11=
EXTT12=
EXTT13=
EXTT14=
EXTT15=
EXTT16=
EXTT17=
PLAYORDER=
